<?xml version="1.0" encoding="utf-8"?>
<!-- Generator: Adobe Illustrator 19.2.1, SVG Export Plug-In . SVG Version: 6.00 Build 0)  -->
<!DOCTYPE svg PUBLIC "-//W3C//DTD SVG 1.1//EN" "http://www.w3.org/Graphics/SVG/1.1/DTD/svg11.dtd" [
	<!ENTITY st0 "opacity:0.4;fill:#FFFFFF;">
	<!ENTITY st1 "opacity:0.8;fill:url(#);">
	<!ENTITY st2 "fill:#FFFFFF;">
	<!ENTITY st3 "fill:#808080;">
	<!ENTITY st4 "fill:#E53238;">
	<!ENTITY st5 "fill:#0064D2;">
	<!ENTITY st6 "fill:#F5AF02;">
	<!ENTITY st7 "fill:#86B817;">
	<!ENTITY st8 "fill:#ED575D;">
	<!ENTITY st9 "fill:#666666;">
	<!ENTITY st10 "fill:#F88509;">
	<!ENTITY st11 "fill:none;stroke:#FFFFFF;stroke-width:2.44;stroke-miterlimit:10;">
	<!ENTITY st12 "fill:none;stroke:#FFFFFF;stroke-width:3.3517;stroke-linecap:round;stroke-miterlimit:10;">
	<!ENTITY st13 "fill:#1A1A1A;">
	<!ENTITY st14 "fill:#333333;">
	<!ENTITY st15 "fill:#CCCCCC;">
	<!ENTITY st16 "clip-path:url(#SVGID_14_);">
	<!ENTITY st17 "fill:#B190CA;">
	<!ENTITY st18 "opacity:0.24;fill:url(#);">
]>
<svg version="1.1" id="レイヤー_1" xmlns="http://www.w3.org/2000/svg" xmlns:xlink="http://www.w3.org/1999/xlink" x="0px"
	 y="0px" viewBox="0 0 144.9 58.5" style="enable-background:new 0 0 144.9 58.5;" xml:space="preserve">
<g>
	<path style="&st4;" d="M43.2,58.5L0,40.2L17.1,0l41.7,17.7l-3,7.1L21.9,10.4l-3.7,8.7l23.6,10l-3,7.1l-23.6-10l-4.4,10.3l35.4,15
		L43.2,58.5z"/>
</g>
<path style="&st5;" d="M46.3,48.4c-0.1,0.8-0.3,1.5-0.4,2.3c-1.3,0-2.4,0-3.7,0c0-10.3,0-20.4,0-30.7c1.3,0,2.4,0,3.9,0
	c0,3.7,0,7.4,0,11.2c10-3.9,15.7-3.3,19.4,1.9c3,4.3,2.8,10.6-0.5,14.4C60.7,52.3,54.6,52.7,46.3,48.4z M46.1,39.9
	c0,5.1,3.7,9,8.7,8.9c4.9,0,8.5-3.8,8.7-8.7c0.1-5.1-3.6-8.9-8.7-8.8C49.6,31.3,46.1,34.8,46.1,39.9z"/>
<path style="&st6;" d="M91.4,41.1c-6.4,0-12.9,0-19.4,0c-0.1,3.2,1.5,5.8,4.3,7c3.1,1.3,7.2,0.9,9.1-1.6c1.6-2.1,3.3-2.3,5.6-1.7
	c-0.5,3-2.2,5.1-5,5.6c-3.3,0.7-6.9,1.2-10.3,0.6c-5.9-0.9-8.8-5.7-8.3-11.8c0.6-6.5,4.3-10.3,10.5-10.6c1.9-0.1,3.8,0,5.6,0.4
	C89.6,30.2,92.5,34.7,91.4,41.1z M87.1,38.1c-0.1-4.4-3.1-7-7.7-6.9c-4.3,0.1-7.5,3.1-7.2,6.9C77.1,38.1,82,38.1,87.1,38.1z"/>
<g>
	<path style="&st7;" d="M144.7,49.4c-0.6,0-1.1,0-1.9,0c0-1.6,0-3.2,0-4.8c0-0.9-0.1-1.7-0.2-2.6c-0.2-1.3-0.9-2.3-2.3-2.5
		c-1.4-0.2-2.9,0.3-3.6,1.6c-0.5,0.9-0.7,2-0.8,3.1c-0.1,1.6,0,3.3,0,5c-0.7,0-1.3,0-2.1,0c0-1.3,0-2.6,0-3.9c0-0.7,0-1.4,0-2
		c-0.1-2.4-1.1-3.8-3-3.8c-2.1,0-3.8,1.6-4,3.9c-0.1,1,0,2-0.1,3c0,0.9,0,1.9,0,2.9c-0.7,0-1.3,0-1.9,0c0-3.5,0-7,0-10.7
		c0.5,0,1-0.1,1.6-0.1c0.1,0.5,0.1,1,0.2,1.2c1.5-0.5,3-1.3,4.5-1.6c1.8-0.3,3.2,0.6,4.1,2.4c0.2-0.2,0.4-0.4,0.6-0.5
		c1.6-1.9,3.9-2.4,6.3-1.6c1.8,0.7,2.7,2.1,2.7,4.7c0,2,0,3.9,0,5.9C144.8,49.1,144.8,49.2,144.7,49.4z"/>
	<path style="&st7;" d="M117.1,49.8c-0.7,0-1.4,0-2-0.1c-3.4-0.6-4.9-2.7-4.7-6.5c0.2-2.8,2.3-4.8,5.6-5c1.1-0.1,2.3,0,3.4,0.2
		c3.4,0.6,4.9,2.8,4.6,6.5c-0.2,2.7-2.4,4.7-5.5,4.8C118,49.7,117.6,49.7,117.1,49.8C117.1,49.7,117.1,49.7,117.1,49.8z M112.5,43.8
		c-0.1,2.6,1.9,4.5,4.5,4.6c2.6,0.1,4.7-1.8,4.8-4.4c0.1-2.5-1.8-4.5-4.6-4.6C114.6,39.4,112.6,41.2,112.5,43.8z"/>
	<path style="&st7;" d="M110.1,41.7c-1,0.2-1.8,0.3-2.4-0.9c-0.8-1.5-2.4-1.5-3.9-1.2c-1.7,0.4-2.7,1.5-3.1,3.1
		c-0.4,1.8-0.1,3.5,1.4,4.7c1.2,1.1,2.7,1.2,4.2,0.6c0.5-0.2,1.2-0.6,1.4-1c0.5-1.4,1.5-1.2,2.5-1c-0.2,2.6-2.4,3.8-6.6,3.7
		c-3.2-0.1-5.2-2.4-5.2-5.8c0-3.5,2.3-5.8,5.8-5.8C107.8,38,110,39.3,110.1,41.7z"/>
	<path style="&st7;" d="M95.4,49.4c0-0.8,0-1.4,0-2.2c0.7,0,1.3,0,2,0c0,0.7,0,1.4,0,2.2C96.8,49.4,96.2,49.4,95.4,49.4z"/>
</g>
</svg>
